<svg xmlns="http://www.w3.org/2000/svg" xmlns:xlink="http://www.w3.org/1999/xlink" width="22" height="22" viewBox="0 0 22 22">
  <defs>
    <clipPath id="clip-path">
      <rect id="Rectangle_1954" data-name="Rectangle 1954" width="17.265" height="17.024" fill="#c9e3e9"/>
    </clipPath>
  </defs>
  <g id="Group_4461" data-name="Group 4461" transform="translate(-48 -609)">
    <g id="Rectangle_2051" data-name="Rectangle 2051" transform="translate(48 609)" fill="#fff" stroke="#707070" stroke-width="1" opacity="0">
      <rect width="22" height="22" stroke="none"/>
      <rect x="0.5" y="0.5" width="21" height="21" fill="none"/>
    </g>
    <g id="Group_4460" data-name="Group 4460" transform="translate(50 611)">
      <g id="Group_3080" data-name="Group 3080" clip-path="url(#clip-path)">
        <path id="Path_4935" data-name="Path 4935" d="M131.8,4.943q-2.348-2.358-4.7-4.707A.709.709,0,0,0,126.569,0a.59.59,0,0,0-.532.373.7.7,0,0,0,.185.771q2.342,2.331,4.678,4.669a.7.7,0,0,0,.953.105.64.64,0,0,0-.049-.976" transform="translate(-114.792 -0.001)" fill="#c9e3e9"/>
        <path id="Path_4936" data-name="Path 4936" d="M14.728,28.014q-1.845-1.825-3.671-3.67c-.164-.166-.265-.207-.453-.018q-4.886,4.9-9.783,9.8A2.9,2.9,0,0,0,0,36.189a2.774,2.774,0,0,0,1.815,2.629,2.7,2.7,0,0,0,3.115-.575c3.28-3.248,6.535-6.52,9.806-9.777.183-.182.163-.282-.009-.452M9.306,31.849a1.231,1.231,0,0,1-.952,0c-.276-.137-.429-.031-.6.16a3.783,3.783,0,0,1-1.8,1.231,1.2,1.2,0,0,0-.813.872,2.567,2.567,0,0,1-1.886,1.872.53.53,0,0,0-.24.107c-.276.283-.456.136-.67-.1-.392-.423-.411-.423.081-.714a3.966,3.966,0,0,1,.729-.311,1.415,1.415,0,0,0,.959-.962,2.51,2.51,0,0,1,1.82-1.82c.586-.166.9-.7,1.325-1.082.058-.052.038-.131.023-.208A2.075,2.075,0,0,1,8.63,28.327a2.216,2.216,0,0,1,.915-.213c1.259.07,1.364.142,1.392,1.309a2.625,2.625,0,0,1-1.631,2.426" transform="translate(0 -22.05)" fill="#c9e3e9"/>
      </g>
    </g>
  </g>
</svg>
