<svg id="Group_29" data-name="Group 29" xmlns="http://www.w3.org/2000/svg" width="80" height="80" viewBox="0 0 80 80">
  <path id="Path_11" data-name="Path 11" d="M0,0H80V80H0Z" fill="none"/>
  <path id="Path_12" data-name="Path 12" d="M44.364,2V8.667H41.031v10.81A26.659,26.659,0,0,0,43.484,30.65L57.757,61.57A5,5,0,0,1,55.311,68.2a4.941,4.941,0,0,1-2.093.463H8.844a5,5,0,0,1-4.54-7.1L18.577,30.65a26.647,26.647,0,0,0,2.453-11.173V8.667H17.7V2Zm-10,6.667H27.7V22h6.667Z" transform="translate(8.969 4.667)" fill="#636fec"/>
</svg>
