<svg xmlns="http://www.w3.org/2000/svg" width="21.998" height="22" viewBox="0 0 21.998 22">
  <path id="Exclusion_3" data-name="Exclusion 3" d="M18314,19694a11.044,11.044,0,1,1,4.283-.871A10.917,10.917,0,0,1,18314,19694Zm-4.225-11.156a.346.346,0,0,0-.344.344v1.516a.351.351,0,0,0,.109.25l4.717,4.352a.343.343,0,0,0,.23.094h2.357a.346.346,0,0,0,.234-.6l-4.311-3.977a3.9,3.9,0,0,0,3.951-3.652h1.51a.346.346,0,0,0,.34-.344v-1.148a.339.339,0,0,0-.34-.336h-1.68a3.655,3.655,0,0,0-.4-.918h2.084a.34.34,0,0,0,.34-.34v-1.145a.343.343,0,0,0-.34-.344h-8.455a.346.346,0,0,0-.344.344v1.277a.343.343,0,0,0,.344.344h2.434a2.04,2.04,0,0,1,1.74.781h-4.174a.341.341,0,0,0-.344.336v1.148a.348.348,0,0,0,.344.344h4.533a1.954,1.954,0,0,1-.687,1.223,2.286,2.286,0,0,1-1.447.449Z" transform="translate(-18303.004 -19672.004)" fill="#fca71d"/>
</svg>
