<svg id="Group_4489" data-name="Group 4489" xmlns="http://www.w3.org/2000/svg" width="18" height="18" viewBox="0 0 18 18">
  <path id="Path_5193" data-name="Path 5193" d="M0,0H18V18H0Z" fill="none"/>
  <path id="Path_5194" data-name="Path 5194" d="M14.1,13.389,9.5,18.107,4.9,13.389a6.8,6.8,0,0,1,0-9.435,6.382,6.382,0,0,1,9.192,0,6.8,6.8,0,0,1,0,9.435ZM9.5,11.637A2.966,2.966,0,1,0,6.611,8.672,2.928,2.928,0,0,0,9.5,11.637Zm0-1.483a1.483,1.483,0,1,1,1.444-1.483A1.464,1.464,0,0,1,9.5,10.154Z" transform="translate(-0.5 -0.333)" fill="#545454"/>
</svg>
