<svg xmlns="http://www.w3.org/2000/svg" width="90" height="90" viewBox="0 0 90 90">
  <g id="nddb_logo" transform="translate(-685 -76)">
    <rect id="Rectangle_2" data-name="Rectangle 2" width="90" height="90" transform="translate(685 76)" fill="#fff" opacity="0"/>
    <g id="Group_5" data-name="Group 5" transform="translate(627.745 53.098)">
      <g id="Group_3" data-name="Group 3" transform="translate(75.929 33.487)">
        <path id="Path_736" data-name="Path 736" d="M118.925,24.255c-.425-.014-.685.027-.356.548a6.6,6.6,0,0,1,.8,3.221A14.816,14.816,0,0,1,118.486,34c-.315.891-.877,1.686-1.138,2.6v.219a2.26,2.26,0,0,0,.343,2.248v.219a4.407,4.407,0,0,0,0,1.124c-.014.192-.164.37,0,.562.206.4.48.384.781.11a.258.258,0,0,1,.233-.11,15.673,15.673,0,0,0,1.6.055,1.421,1.421,0,0,0,.864-.315,3.37,3.37,0,0,0,.932-2.988,8.221,8.221,0,0,1,.206-3.167,4.8,4.8,0,0,1,.233-.754c.055-.192.123-.384.164-.589.11-.315.1-.658.206-.987a16.9,16.9,0,0,0,0-6.1,5.3,5.3,0,0,1-.137-.672c-.1-.356-.178-.727-.288-1.083a.883.883,0,0,0-.809-.6c-.315-.041-.658-.055-.8.343a30.7,30.7,0,0,0,.48,3.153,16.183,16.183,0,0,1,.137,4.743,6.617,6.617,0,0,1-.822,2.426,3.215,3.215,0,0,0-.37,2.166c.137.864.356,1.714.452,2.591.055.548-.1.891-.48,1.014s-.727-.069-.987-.562a1.65,1.65,0,0,1-.206-1.193,3.788,3.788,0,0,0,0-1.878,2.48,2.48,0,0,1,.329-1.933,6.3,6.3,0,0,0,.822-2.426,16.006,16.006,0,0,0-.164-6.456,3.427,3.427,0,0,0-.452-1.083A.975.975,0,0,0,118.925,24.255Z" transform="translate(-107.335 -23.46)" fill="#fff"/>
        <path id="Path_737" data-name="Path 737" d="M389.012,96.575a19.848,19.848,0,0,0,1.193-4.414,6.907,6.907,0,0,0-2.6-6.689,3.3,3.3,0,0,0-1.7-.672c.562.7,1.083,1.275,1.522,1.919a8.534,8.534,0,0,1,1.343,6.566A4,4,0,0,1,388,95.012a.775.775,0,0,0-.3.329,5.308,5.308,0,0,1-.288.466,9.218,9.218,0,0,0-1.138,1.576.836.836,0,0,0,.151,1.193,3.55,3.55,0,0,0,.891.576c.548.233.713.178,1.028-.356a5.865,5.865,0,0,1,.233-.631C388.71,97.631,389.108,97.178,389.012,96.575Z" transform="translate(-339.217 -76.137)" fill="#fff"/>
        <g id="Group_2" data-name="Group 2" transform="translate(0.427 18.796)">
          <path id="Path_738" data-name="Path 738" d="M142,266.9Z" transform="translate(-129.178 -252.07)" fill="#fff"/>
          <path id="Path_739" data-name="Path 739" d="M98.286,173.835a2.317,2.317,0,0,0-.768-2.07c-.562-.151-.7-.192-.781.041.027.11.055.219.082.343.055.343.11.7.178,1.042a13.285,13.285,0,0,1,.247,3.605c-.014.343.027.85-.452.918-.439.069-.685-.315-.864-.685a10.822,10.822,0,0,1-.918-5.607.787.787,0,0,1,.439-.74.535.535,0,0,1,.343-.069.52.52,0,0,0,.11-.727,6.056,6.056,0,0,0-3.194-1.755c-.466-.1-.644-.288-.6-.74a2.155,2.155,0,0,0-.151-.877.94.94,0,0,0-.685-.685,10.721,10.721,0,0,1-4.716-3.3c-.864-.891-1.6-1.878-2.481-2.755a3.475,3.475,0,0,0-1.672-.987c-2.769-.521-6.484,2.1-6.292,5.607.055,1.124.014,1.1-1.1,1a63.051,63.051,0,0,1-7.5-1.138c-.425-.082-.85.027-1.275-.082h-.219a7.557,7.557,0,0,0-2.81-.562c-.192,0-.384,0-.576-.014-.37-.041-.727-.164-1.083-.219a8.355,8.355,0,0,0-1.851,0c-.7.041-1.4-.027-2.1-.055a14.552,14.552,0,0,0-1.892.233,2.988,2.988,0,0,0-.6.151c-.26.1-.507.206-.768.3a7.6,7.6,0,0,0-3.153,1.933,5.006,5.006,0,0,1-.37.411,5.336,5.336,0,0,0-1.042,1.371,1.647,1.647,0,0,1-.3.493,8.7,8.7,0,0,0-.987,3.866,9.715,9.715,0,0,0,.151,2.673c.082.274.123.562.178.836a8.381,8.381,0,0,0,.466,1.618,10.926,10.926,0,0,1,.452,2.755c.11,1.988-.315,3.948-.247,5.922a9.744,9.744,0,0,0,.644,3.057,6.217,6.217,0,0,1,.247.864,3.583,3.583,0,0,0,.37,1.056.492.492,0,0,0,.589.315c.288-.082.3-.329.26-.548a7.12,7.12,0,0,1,.1-1.947c.288-.466-.123-1.014.178-1.467a11.511,11.511,0,0,0-.11-4.112c-.288-1.138-.617-2.276-.987-3.454.713,1,1.412,1.947,2.029,2.947a2.116,2.116,0,0,1,.3,1.768,13.392,13.392,0,0,0-.219,1.659c0,.685-.041,1.371-.1,2.056-.055.754.123,1.508.11,2.276a.531.531,0,0,0,.411.548.64.64,0,0,1,.521.576,1.1,1.1,0,0,0,.631.74,3.223,3.223,0,0,0,2,.055c.329-.1.589-.315.411-.644-.685-1.206-1.206-2.495-1.8-3.756a3.218,3.218,0,0,1,.562-2.851,3.916,3.916,0,0,1,.576-.685,1.586,1.586,0,0,0,.548-1.343,2.116,2.116,0,0,1,.137-.932.684.684,0,0,1,.658-.521c.343.014.493.288.548.617.11.589.206,1.165.343,1.755.178.768.425.973,1.083.96s.781-.452.864-.973c.1-.713.192-1.439.329-2.138.274-1.508,1.412-1.494,2.371-.96a3.256,3.256,0,0,1,1.576,2.687,7.7,7.7,0,0,0,.219.973.753.753,0,0,0,.781.658.745.745,0,0,0,.809-.685c.206-.8.384-1.59.617-2.371a1.166,1.166,0,0,1,1.3-.987c1.563-.014,3.112-.027,4.674,0a15.7,15.7,0,0,1,1.947.233.943.943,0,0,1,.644.4,7.589,7.589,0,0,1,1.426,5.757c-.027.219-.014.452-.027.672-.425.507-.26,1.138-.37,1.7a8.618,8.618,0,0,0-.027,1.33.645.645,0,0,0,.4.672c.219.041.452-.178.672,0-.027.864.233,1.138,1.11,1.234a2.145,2.145,0,0,0,1.247-.123c.315-.014.562-.069.206-.411a.511.511,0,0,1-.206-.37,1.033,1.033,0,0,0-.452-.672,2.505,2.505,0,0,1-.11-.343,10.018,10.018,0,0,0-.206-1.412,4.221,4.221,0,0,1,.055-1.371c.041-.452.11-.9.151-1.371a.222.222,0,0,1,.11-.219A10.927,10.927,0,0,0,81,184.541c.617-1.124,1.151-2.3,1.659-3.482a4.534,4.534,0,0,0,.247-3,3.393,3.393,0,0,1-.178-1.042.378.378,0,0,1,.206-.384A1.6,1.6,0,0,1,85,178.071a5.337,5.337,0,0,1-.6,2.591c-.055.123-.11.26-.164.384a34.148,34.148,0,0,1-3,5.689c-.178.26-.37.521-.535.8-.343.6-.123,1.056.562,1.193a2.266,2.266,0,0,1,.439.1c.137.041.288.069.425.11.644.192.727.288.727.973a3.192,3.192,0,0,0,.178,1.138,1.336,1.336,0,0,0,.425.562.692.692,0,0,1,.3.452,1.024,1.024,0,0,0,1.1,1.014,1.942,1.942,0,0,1,.274.055,1.574,1.574,0,0,0,1.165-.164h.11a.646.646,0,0,0,.219-1.11,1.169,1.169,0,0,1-.219-.233c-.37-.535-.754-1.069-1.11-1.6a4.316,4.316,0,0,1-.425-.781.6.6,0,0,1,.151-.768.631.631,0,0,1,.822.11,2.287,2.287,0,0,1,.439.576,2.876,2.876,0,0,0,2.8,1.206,6.3,6.3,0,0,0,3.413-1.878,1.023,1.023,0,0,0,.343-.343c1.083-1.412,1.59-3.153,2.7-4.551a1.528,1.528,0,0,0,.356-1.343,1.4,1.4,0,0,1,.274-1.11A9.825,9.825,0,0,0,97,179.373c.137-.123.055-.3.11-.452.37-.822.754-1.645,1.124-2.467A6.5,6.5,0,0,0,98.286,173.835Zm-22.838,6.388a8.62,8.62,0,0,1-.973-.274,8.031,8.031,0,0,0-4.071-.3,13.379,13.379,0,0,1-6.7-.1,6.627,6.627,0,0,0-2.207-.247,9.158,9.158,0,0,0-3.756,1.384,6.514,6.514,0,0,0-2.509,1.919c-.466.658-.727.631-1.22,0a25.7,25.7,0,0,1-2.413-3.633c-1.316-2.467-2.289-5.017-1.659-7.91a8.667,8.667,0,0,1,2.111-4.249,8.381,8.381,0,0,1,4.249-2.371,10.426,10.426,0,0,1,3.057-.274.688.688,0,0,1,.685.411c.1.315-.137.507-.4.658-.466.3-.932.6-1.385.932a6.209,6.209,0,0,0-2.509,3.537,1.407,1.407,0,0,0,.822,1.8c.356.178.713.329,1.042.535a1.014,1.014,0,0,1,.452,1.247,8.134,8.134,0,0,1-1.809,2.783c-.48.274-1.193.26-1.275,1.042a.32.32,0,0,1-.137.164,1.625,1.625,0,0,0-.685,1.686c.041.329,0,.672.014,1,0,.219-.014.48.288.521.274.041.576.11.685-.274a3.788,3.788,0,0,1,1.014-1.124c.288-.206.576-.411.864-.6a9.963,9.963,0,0,0,3.071-3.029,17.187,17.187,0,0,0,1.014-2.084c.219-.219.11-.535.219-.781.082-.425.151-.836.233-1.261.041-.206.137-.37.343-.4.247-.027.3.206.343.37.315.946.48,1.933.877,2.851h0c.069.069.164.11.192.192.822,1.741,2.454,2.138,4.126,2.385a35.157,35.157,0,0,0,3.989.137,5.285,5.285,0,0,1,3.7,1.343,2.935,2.935,0,0,1,.891,1.33C76.175,180.086,76.01,180.305,75.448,180.223Zm7.334-13.242A2.522,2.522,0,0,0,80.26,168.6a6.319,6.319,0,0,0-.233,1.426,23.707,23.707,0,0,0,.247,4.181,9.611,9.611,0,0,1-.192,1.659c-.219,1.549-.672,3.043-.973,4.578a11.076,11.076,0,0,1-.864,2.646c-.1.206-.233.535-.521.247a2.959,2.959,0,0,1-1.151-2.385c.069-.973.26-1.947.356-2.934a34.685,34.685,0,0,0-.082-6.086,6.2,6.2,0,0,1,1.385-5,1.477,1.477,0,0,0,.151-1.892,3.807,3.807,0,0,1-.425-1.138,2.708,2.708,0,0,1,1.7-3.167c.192-.055.4-.082.6-.123a2.639,2.639,0,0,1,3.043,1.851,5.621,5.621,0,0,0,1.631,3.057,2.776,2.776,0,0,1,1,2.043,5.251,5.251,0,0,1-1.343,3c-.178.247-.493.206-.713-.082a4.211,4.211,0,0,1-.576-1.261,4.96,4.96,0,0,1,.014-1.494C83.289,167.365,83.248,167.036,82.782,166.981Zm2.18,8.759a1.876,1.876,0,0,1-1.672-1.412c-.315-.877-.315-.877.562-.727a1.173,1.173,0,0,0,.219,0,2.282,2.282,0,0,1,1.576.9c.027.11.069.219.1.315C85.88,175.507,85.674,175.754,84.961,175.74Zm.356,11.528a.856.856,0,0,1-1.083.3.807.807,0,0,1-.425-1.083,40.159,40.159,0,0,1,2.111-4.935,11.514,11.514,0,0,0,.946-2.838,10.568,10.568,0,0,0,.041-3.084c-.055-.535-.137-1.645-.9-1.576a2.811,2.811,0,0,1-1.686-.9c-.26-.356-.644-.631-.754-1.083-.041-.151-.206-.329-.055-.466s.356-.014.507.082a2.554,2.554,0,0,0,1.467.466c1.151-.027.973.123.987-.973a5.573,5.573,0,0,1,.26-1.905A9.649,9.649,0,0,1,87.7,167.5a.831.831,0,0,1,.1-.137c.055-.055.123-.082.178-.137.288-.233.37-.6.74-.768.507-.219,1.11.48,1.289.891a1.351,1.351,0,0,0,.178.343c.027.027.055.041.069.082a.258.258,0,0,1,.027.11,3.408,3.408,0,0,1,.055.644,1.391,1.391,0,0,1-.4.973,2.424,2.424,0,0,0-1,2.1v5.168a14.134,14.134,0,0,1-1.138,6.155A21.051,21.051,0,0,1,85.318,187.269Zm2.426,1.48a1.989,1.989,0,0,1-.6-2.591,40.309,40.309,0,0,0,1.919-4.4,13.735,13.735,0,0,0,.74-6.813,7.353,7.353,0,0,1,1.316-5.607c.493-.7.7-.713,1.426-.233a.6.6,0,0,1,.123.576c-.206.507-.37.96-.576,1.439a3.828,3.828,0,0,0-.219,1.8.973.973,0,0,1,.11.247,47.237,47.237,0,0,1,.233,5.744,4.9,4.9,0,0,1-.219,1.316,4.479,4.479,0,0,1-.233,1.206,40.251,40.251,0,0,1-1.933,6.813A1.267,1.267,0,0,1,87.744,188.749Zm6.813-9.28a2.809,2.809,0,0,1-.329,1.234,3.608,3.608,0,0,0-.466,1.247,24.254,24.254,0,0,1-.548,3.578,3.852,3.852,0,0,1-.864,1.8.633.633,0,0,1-.987,0,1.089,1.089,0,0,1-.343-1.165,19.736,19.736,0,0,1,.877-2.481,18.714,18.714,0,0,0,1.193-5.593,11.7,11.7,0,0,0-.082-3.016,12.528,12.528,0,0,0-.343-3.029,3.518,3.518,0,0,1-.1-1.193,1.747,1.747,0,0,1,.658-1.508c.192-.315.493-.521.836-.343s.178.521.069.8a6.533,6.533,0,0,0-.356,2.3,16.848,16.848,0,0,0,.466,2.742h0c.027.041.082.082.1.137A19.007,19.007,0,0,1,94.557,179.469Z" transform="translate(-48.466 -158.717)" fill="#fff"/>
        </g>
        <path id="Path_740" data-name="Path 740" d="M391.3,240.018c.493-.055.727.274.932.631.151.274.274.548.425.822.014-.247-.055-.589.37-.274.11.069.247-.014.343-.055a7.073,7.073,0,0,0-1.782-2.042A.64.64,0,0,1,391.3,240.018Z" transform="translate(-343.877 -209.285)" fill="#fff"/>
        <path id="Path_741" data-name="Path 741" d="M180.586,27.532a1.49,1.49,0,0,1,0,1.234.7.7,0,0,0,0,.781,72.989,72.989,0,0,0,0,7.745,5.027,5.027,0,0,0,.219,2.467,4.609,4.609,0,0,1,.165,1.672,6.379,6.379,0,0,1,.055,1.028,1.226,1.226,0,0,0,1.357.576,2.334,2.334,0,0,0,2.248-2.166,6.971,6.971,0,0,0,.041-.932.391.391,0,0,0,0-.178,3.658,3.658,0,0,1,0-.548,6.855,6.855,0,0,1,.48-2.509,2.564,2.564,0,0,1,.685-1.014c.37-.288.288-.548-.014-.822a1.789,1.789,0,0,0-1.028-.507c-.6-.069-.7.014-.8.631a.834.834,0,0,1-.123.247,7.156,7.156,0,0,1-.233,1.316c-.26,1.48-.137,2.988-.329,4.469a1.921,1.921,0,0,1-.329,1.056,1.963,1.963,0,0,1-.288.164.522.522,0,0,1-.562-.014c-.288-.164-.219-.425-.206-.672.014-.315.082-.617.123-.918a2.868,2.868,0,0,1,.082-.768,2.549,2.549,0,0,0,.041-.644,2.66,2.66,0,0,1,.069-.932,24.529,24.529,0,0,0-.014-3.619,1.232,1.232,0,0,0-.384-.96.275.275,0,0,1-.082-.356c.315-.576.055-1.124-.069-1.672a4.762,4.762,0,0,1,0-1.919,8.9,8.9,0,0,0,.055-2.892c-.233-1.206-.548-1.48-1.782-1.385a.732.732,0,0,0-.6.425.236.236,0,0,0,.027.164c.206.233.589.027.781.288a1.391,1.391,0,0,0,.26.37c.178.164.082.37.11.562A.211.211,0,0,0,180.586,27.532Z" transform="translate(-160.99 -24.941)" fill="#fff"/>
        <path id="Path_742" data-name="Path 742" d="M163.691,26.013V25.9a.325.325,0,0,0-.274-.1c-.151.027-.315.1-.452-.069a.753.753,0,0,0-.123-.1,2.611,2.611,0,0,0-.631-.206c-.384,0-.822-.192-1.11.247,0,.3.26.343.452.452a.826.826,0,0,0,.343.343c.082.151.151.3.233.452.178.164.11.384.11.576V32.88a.352.352,0,0,0-.082.26,2.194,2.194,0,0,1,.027.672v7.279c0,.411-.055.864.493,1,.37.1.685-.233.864-.85a8.254,8.254,0,0,0,.165-2.166,10.336,10.336,0,0,0-.1-2.344,4.512,4.512,0,0,1-.123-.589,2.8,2.8,0,0,1,.11-.589,6.092,6.092,0,0,0-.014-1.933c-.055-.644-.041-1.316-.055-1.96-.014-1.357.027-2.7.014-4.058a3.663,3.663,0,0,1,.3-1.069A.464.464,0,0,0,163.691,26.013Z" transform="translate(-145.233 -24.875)" fill="#fff"/>
        <path id="Path_743" data-name="Path 743" d="M214.688,32.6c-.4.781.37,1.275.507,1.933.014.082.206.137.315.192.37.164.822.1,1.179.315.123.082.247-.041.343-.123a1.188,1.188,0,0,0,.11-1.823c-.055-.055-.1-.123-.164-.151-.973-.452-.9-1.357-.946-2.193-.041-.987-.014-1.974-.014-2.975a3,3,0,0,0-.055-.781.745.745,0,0,0-.864-.452c-.466.055-.192.384-.192.6-.014.356,0,.713,0,1.069a38.232,38.232,0,0,0-.11,3.962.363.363,0,0,1-.11.3c-.027.027-.041.055-.027.069C214.661,32.59,214.674,32.6,214.688,32.6Z" transform="translate(-191.378 -25.859)" fill="#fff"/>
        <path id="Path_744" data-name="Path 744" d="M55.116,29.083c-.041-.1-.164-.178-.123-.3.384-1.206-.439-1.823-1.22-2.44a4.62,4.62,0,0,0-1.3-.644,1.334,1.334,0,0,0-1.234-.219,1.919,1.919,0,0,0-1.823.631c-.137.192-.37.164-.576.164H46.7a1.22,1.22,0,0,0-.658.11.744.744,0,0,0-.11,1.343.381.381,0,0,0,.274.137c.137.041.356.027.329.219-.014.164-.219.082-.343.11a1.3,1.3,0,0,0-.74.548c-.233.685-.082.973.576,1.138.137.041.288.069.425.1.384.082.781-.055,1.165.11a.5.5,0,0,1,.055.315,3.186,3.186,0,0,0,.055.727,10.345,10.345,0,0,1,.069,1.837c.082.7.206,1.385.26,2.1a2.67,2.67,0,0,1,.1.809.8.8,0,0,0,.027.178,6.393,6.393,0,0,1,.11.877,17.2,17.2,0,0,0,.836,3.811,7.47,7.47,0,0,0,.507,1.056,1.7,1.7,0,0,0,3.071.123,1.261,1.261,0,0,0,.192-.384v-.11a2.686,2.686,0,0,0,.233-1.138,44.071,44.071,0,0,0-.439-6,15.571,15.571,0,0,1-.014-1.96.629.629,0,0,1,.658-.672,2.577,2.577,0,0,0,1.234-.507A1.548,1.548,0,0,0,55.116,29.083Zm-1.11,1.467a4.087,4.087,0,0,1-1.864-.151c-.425-.1-.6.069-.576.466.11,1.522.233,3.043.288,4.565.055,1.426.014,2.838.014,4.263a3.3,3.3,0,0,1-.11.822.684.684,0,0,1-.48.562.692.692,0,0,1-.713-.343,2.822,2.822,0,0,1-.4-.987,54.063,54.063,0,0,1-.781-7.868c-.069-1.193.151-2.385.11-3.578a3.291,3.291,0,0,1,.343-1.727.854.854,0,0,1,1.508-.137,1.253,1.253,0,0,0,.918.548,3.525,3.525,0,0,1,1.659.439c.164.137.343.26.288.493a.445.445,0,0,1-.493.37,6.755,6.755,0,0,1-1.289-.041c-.26-.069-.576-.178-.644.178s.288.37.535.439a5.056,5.056,0,0,1,1.741.754C54.554,29.974,54.541,30.262,54.006,30.55Z" transform="translate(-45.349 -24.902)" fill="#fff"/>
        <path id="Path_745" data-name="Path 745" d="M323.764,116.519a3.724,3.724,0,0,0-1.289-1.919,3.091,3.091,0,0,1-1.11-1.385,7.2,7.2,0,0,0-1.083-1.823.7.7,0,0,0-.315-.562c-.247-.192-.507-.384-.74-.6a3.633,3.633,0,0,0-2.221-.8,2.366,2.366,0,0,1-.617-.069,5.206,5.206,0,0,1-.7-.206c-.219-.069-.452-.137-.672-.219a2.81,2.81,0,0,1-.562-.219,9.151,9.151,0,0,1-1.494-.891,1.747,1.747,0,0,1-.384-.315c-.192-.178-.384-.37-.562-.562a2.865,2.865,0,0,1-.329-.384,8.513,8.513,0,0,1-.987-1.618,3.326,3.326,0,0,1-.219-.507,11.583,11.583,0,0,1-.576-1.809,3.647,3.647,0,0,1-.164-.768,16.717,16.717,0,0,1-.274-1.851c-.137-.96-.164-1.919-.233-2.879-.37-.384-.617-.329-.809.206a10.129,10.129,0,0,0-.548,2.618,14.872,14.872,0,0,0,.178,3.825,18.117,18.117,0,0,0,1.343,3.194,8.465,8.465,0,0,0,7.4,4.441c.589.014.617.069.37.617-.4.85-.37.987.466,1.385a10.573,10.573,0,0,1,3.811,3.482c.26.356.384.822.864.987.521.26.9-.014,1.261-.315A.837.837,0,0,0,323.764,116.519Zm-4.03-3.221c-.192-.014-.507.082-.562-.3-.027-.206.562-.713.8-.658.26.055.535.192.521.493C320.488,113.283,320.131,113.311,319.734,113.3Zm2.988,2.906a.3.3,0,0,1-.288-.343.289.289,0,0,1,.329-.3c.192,0,.315.1.329.343C323.024,116.025,322.982,116.231,322.722,116.2Z" transform="translate(-271.845 -86.567)" fill="#fff"/>
        <path id="Path_746" data-name="Path 746" d="M250.645,26.782c-.137-.164.014-.4-.11-.562-.082-.37-.151-.754-.233-1.124-.082-.178-.069-.411-.219-.562a2.826,2.826,0,0,1-.343-.781,3.476,3.476,0,0,0-1.659-1.768c-.165-.082-.343-.164-.507-.26a1.179,1.179,0,0,0-.535-.123c-.7.014-.987.452-.685,1.069a14.444,14.444,0,0,0,1.138,1.727,2.023,2.023,0,0,1,.164,2.344,17.746,17.746,0,0,1-.987,1.809c-.137.192-.219.452-.521.425-.356-.027-.356-.329-.425-.576l-.041-.164a2.016,2.016,0,0,1-.082-.576.777.777,0,0,0-.041-.247,1.531,1.531,0,0,1,.288-1.453.555.555,0,0,0,.027-.768.459.459,0,0,1,.11-.781c.343-.233.411-.535.069-.809a1.118,1.118,0,0,1-.329-.9c-.027-.274-.027-.617-.48-.411-.466.3-.589.85-.85,1.289-.658,1.138-1.261,2.317-1.892,3.482a4.791,4.791,0,0,0-.315.946.522.522,0,0,0-.26.466,12.882,12.882,0,0,0,.11,3.167.533.533,0,0,0,.151.288,18.172,18.172,0,0,0,.672,2.838c.11.288.233.576.343.864a7.028,7.028,0,0,0,1.138,1.426c.822.644,1.165.7,2.056.164.151-.082.3-.315.48-.1.151.192.027.4-.11.562-.069.082-.178.137-.26.219s-.137.151-.1.247a.258.258,0,0,0,.274.164,1.988,1.988,0,0,0,.987-.343,7.071,7.071,0,0,0,2.193-3.509,26.526,26.526,0,0,0,.672-3.1c.137-.165-.027-.4.11-.562C250.631,29.468,250.741,28.125,250.645,26.782Zm-2.577,8.485a1.814,1.814,0,0,1-.768.973c-.452.219-.96-.027-1.412-.137a3.556,3.556,0,0,1-.507-.151,2.412,2.412,0,0,1-1.3-1.727,1.912,1.912,0,0,1-.082-.617c.027-.192.11-.37.151-.548a4.894,4.894,0,0,0-.055-1.179,7.177,7.177,0,0,0,0-1.878c-.151-.507-.562-.891-.713-1.4a5.892,5.892,0,0,1,.055-1.768c0-.247.069-.535.343-.576.329-.055.37.26.439.48a18.061,18.061,0,0,0,1.056,2.7c.425.864,1.069.891,1.672.151a10.7,10.7,0,0,0,1.4-2.467c.069-.164.137-.4.37-.343.178.041.219.219.247.4.055.288.137.576.206.864A15.06,15.06,0,0,1,248.068,35.267Z" transform="translate(-214.942 -21.6)" fill="#fff"/>
      </g>
      <path id="Path_747" data-name="Path 747" d="M6.44-26.423H5.663l-1.41-2.149a3.107,3.107,0,0,1-.172-.284h-.01q.019.181.019.553v1.88H3.363v-3.42h.83L5.55-27.761q.093.141.172.279h.01a3.657,3.657,0,0,1-.019-.47v-1.891H6.44Zm4.752,0h-.84l-.243-.761H8.893l-.241.761H7.817l1.245-3.42h.914ZM9.933-27.775l-.367-1.15a1.5,1.5,0,0,1-.057-.308H9.489a1.3,1.3,0,0,1-.06.3l-.372,1.159Zm4.709-1.441h-.976v2.793h-.773v-2.793h-.971v-.627h2.719Zm2.193,2.793h-.77v-3.42h.77Zm3.185.06a1.592,1.592,0,0,1-1.2-.478,1.717,1.717,0,0,1-.463-1.246,1.84,1.84,0,0,1,.47-1.312,1.627,1.627,0,0,1,1.245-.5,1.552,1.552,0,0,1,1.184.479,1.768,1.768,0,0,1,.452,1.264,1.81,1.81,0,0,1-.469,1.3A1.609,1.609,0,0,1,20.021-26.363Zm.033-2.874a.776.776,0,0,0-.644.3,1.268,1.268,0,0,0-.239.8,1.245,1.245,0,0,0,.239.8.764.764,0,0,0,.625.3.772.772,0,0,0,.632-.287,1.231,1.231,0,0,0,.234-.8,1.334,1.334,0,0,0-.227-.828A.739.739,0,0,0,20.054-29.237Zm6.265,2.815h-.778l-1.41-2.149a3.108,3.108,0,0,1-.172-.284h-.01q.019.181.019.553v1.88h-.727v-3.42h.83l1.357,2.082q.093.141.172.279h.01a3.657,3.657,0,0,1-.019-.47v-1.891h.727Zm4.752,0h-.84l-.243-.761H28.772l-.241.761H27.7l1.245-3.42h.914Zm-1.259-1.352-.367-1.15a1.5,1.5,0,0,1-.057-.308h-.019a1.3,1.3,0,0,1-.06.3l-.372,1.159ZM34.5-26.423H32.46v-3.42h.77v2.8H34.5Zm3.733,0v-3.42h1.212q1.822,0,1.822,1.667a1.686,1.686,0,0,1-.5,1.276,1.834,1.834,0,0,1-1.325.477ZM39-29.216v2.168h.382a1.031,1.031,0,0,0,.786-.3,1.14,1.14,0,0,0,.285-.818,1.034,1.034,0,0,0-.283-.769,1.078,1.078,0,0,0-.793-.28Zm6.727,2.793h-.84l-.243-.761H43.428l-.241.761h-.835l1.245-3.42h.914Zm-1.259-1.352-.367-1.15a1.5,1.5,0,0,1-.057-.308h-.019a1.3,1.3,0,0,1-.06.3l-.372,1.159Zm3.419,1.352h-.77v-3.42h.77Zm4.609,0h-.885l-.532-.88q-.06-.1-.114-.179a.994.994,0,0,0-.111-.135.441.441,0,0,0-.117-.086.3.3,0,0,0-.132-.03H50.4v1.309h-.77v-3.42h1.221q1.245,0,1.245.93a.963.963,0,0,1-.055.33.917.917,0,0,1-.155.273.983.983,0,0,1-.242.21,1.248,1.248,0,0,1-.316.138v.01a.49.49,0,0,1,.148.078,1.059,1.059,0,0,1,.138.125,1.747,1.747,0,0,1,.128.154q.061.082.111.161Zm-2.1-2.843v.952h.334a.554.554,0,0,0,.4-.143.478.478,0,0,0,.153-.36q0-.448-.537-.448Zm5.912-.577-1.114,2.2v1.216h-.77v-1.2L53.34-29.843h.88l.551,1.276q.014.036.079.279h.01a1.243,1.243,0,0,1,.074-.27l.561-1.286Z" transform="translate(72.375 121.436)" fill="#fff"/>
      <path id="Path_748" data-name="Path 748" d="M3.363-26.423v-3.42H4.575q1.822,0,1.822,1.667A1.686,1.686,0,0,1,5.9-26.9a1.834,1.834,0,0,1-1.325.477Zm.77-2.793v2.168h.382a1.031,1.031,0,0,0,.786-.3,1.14,1.14,0,0,0,.285-.818,1.034,1.034,0,0,0-.283-.769,1.078,1.078,0,0,0-.793-.28Zm4.882,2.793H6.965v-3.42H8.937v.627h-1.2v.761H8.854v.625H7.735v.782H9.016Zm3.42-3.42-1.178,3.42h-.873l-1.164-3.42h.83l.713,2.38a1.7,1.7,0,0,1,.069.341h.014a1.928,1.928,0,0,1,.074-.351l.708-2.371Zm2.461,3.42H12.847v-3.42h1.973v.627h-1.2v.761h1.119v.625H13.617v.782H14.9Zm2.586,0H15.447v-3.42h.77v2.8h1.267Zm1.784.06a1.592,1.592,0,0,1-1.2-.478,1.717,1.717,0,0,1-.463-1.246,1.84,1.84,0,0,1,.47-1.312,1.627,1.627,0,0,1,1.245-.5,1.552,1.552,0,0,1,1.184.479,1.768,1.768,0,0,1,.452,1.264,1.81,1.81,0,0,1-.469,1.3A1.609,1.609,0,0,1,19.268-26.363Zm.033-2.874a.776.776,0,0,0-.644.3,1.268,1.268,0,0,0-.239.8,1.245,1.245,0,0,0,.239.8.764.764,0,0,0,.625.3.772.772,0,0,0,.632-.287,1.231,1.231,0,0,0,.234-.8,1.334,1.334,0,0,0-.227-.828A.739.739,0,0,0,19.3-29.237Zm3,1.636v1.178h-.77v-3.42h1.207q1.293,0,1.293,1.09a1.046,1.046,0,0,1-.371.834,1.469,1.469,0,0,1-.991.318Zm0-1.651v1.066h.3q.615,0,.615-.539t-.615-.527Zm6.128,2.829h-.761v-2.046q0-.332.029-.732h-.019a3.6,3.6,0,0,1-.107.453l-.8,2.326h-.63l-.816-2.3a4.478,4.478,0,0,1-.107-.477H25.19q.031.506.031.887v1.891h-.694v-3.42h1.128l.7,2.027a2.854,2.854,0,0,1,.122.489h.014a4.925,4.925,0,0,1,.136-.494l.7-2.023h1.1Zm2.829,0H29.2v-3.42h1.973v.627h-1.2v.761h1.119v.625H29.972v.782h1.281Zm3.625,0H34.1l-1.41-2.149a3.109,3.109,0,0,1-.172-.284h-.01q.019.181.019.553v1.88H31.8v-3.42h.83l1.357,2.082q.093.141.172.279h.01a3.657,3.657,0,0,1-.019-.47v-1.891h.727Zm3.184-2.793h-.976v2.793h-.773v-2.793h-.971v-.627h2.719Zm1.808,2.793v-3.42h1.245a1.555,1.555,0,0,1,.88.21.675.675,0,0,1,.308.592.7.7,0,0,1-.187.484.984.984,0,0,1-.478.289v.01a.948.948,0,0,1,.583.27.754.754,0,0,1,.218.546.913.913,0,0,1-.336.745,1.407,1.407,0,0,1-.918.275Zm.77-2.853v.811h.339a.565.565,0,0,0,.376-.116.394.394,0,0,0,.137-.318q0-.377-.563-.377Zm0,1.383v.9h.417a.642.642,0,0,0,.419-.124.414.414,0,0,0,.151-.339.387.387,0,0,0-.149-.322.66.66,0,0,0-.416-.117Zm3.807,1.529a1.592,1.592,0,0,1-1.2-.478,1.717,1.717,0,0,1-.463-1.246,1.84,1.84,0,0,1,.47-1.312,1.627,1.627,0,0,1,1.245-.5,1.552,1.552,0,0,1,1.184.479,1.768,1.768,0,0,1,.452,1.264,1.81,1.81,0,0,1-.469,1.3A1.609,1.609,0,0,1,44.448-26.363Zm.033-2.874a.775.775,0,0,0-.644.3,1.268,1.268,0,0,0-.239.8,1.245,1.245,0,0,0,.239.8.764.764,0,0,0,.625.3.772.772,0,0,0,.632-.287,1.231,1.231,0,0,0,.234-.8,1.334,1.334,0,0,0-.227-.828A.739.739,0,0,0,44.481-29.237Zm5.159,2.815H48.8l-.243-.761H47.341l-.241.761h-.835l1.245-3.42h.914Zm-1.259-1.352-.367-1.15a1.5,1.5,0,0,1-.057-.308h-.019a1.3,1.3,0,0,1-.06.3l-.372,1.159Zm4.556,1.352h-.885l-.532-.88q-.06-.1-.114-.179a.994.994,0,0,0-.111-.135.441.441,0,0,0-.117-.086.3.3,0,0,0-.132-.03h-.208v1.309h-.77v-3.42h1.221q1.245,0,1.245.93a.963.963,0,0,1-.055.33.918.918,0,0,1-.155.273.983.983,0,0,1-.242.21,1.249,1.249,0,0,1-.316.138v.01a.49.49,0,0,1,.148.078,1.059,1.059,0,0,1,.138.125,1.747,1.747,0,0,1,.128.154q.061.082.111.161Zm-2.1-2.843v.952h.334a.554.554,0,0,0,.4-.143.478.478,0,0,0,.153-.36q0-.448-.537-.448Zm2.419,2.843v-3.42h1.212q1.822,0,1.822,1.667a1.686,1.686,0,0,1-.5,1.276,1.834,1.834,0,0,1-1.325.477Zm.77-2.793v2.168h.382a1.031,1.031,0,0,0,.786-.3,1.14,1.14,0,0,0,.285-.818,1.034,1.034,0,0,0-.283-.769,1.078,1.078,0,0,0-.793-.28Z" transform="translate(72.259 127.716)" fill="#fff"/>
    </g>
  </g>
</svg>
