<svg id="Group_2986" data-name="Group 2986" xmlns="http://www.w3.org/2000/svg" width="48" height="24" viewBox="0 0 48 24">
  <g id="Group_2918" data-name="Group 2918" transform="translate(0 24) rotate(-90)">
    <path id="Path_7" data-name="Path 7" d="M0,0H24V24H0Z" fill="none"/>
    <path id="Path_8" data-name="Path 8" d="M6.364,4.95,11.314,0l1.414,1.414L6.364,7.778,0,1.414,1.414,0Z" transform="translate(5.636 8.222)" fill="#6c747b"/>
  </g>
  <g id="Group_2926" data-name="Group 2926" transform="translate(8 24) rotate(-90)">
    <path id="Path_7-2" data-name="Path 7" d="M0,0H24V24H0Z" fill="none"/>
    <path id="Path_8-2" data-name="Path 8" d="M6.364,4.95,11.314,0l1.414,1.414L6.364,7.778,0,1.414,1.414,0Z" transform="translate(5.636 8.222)" fill="#6c747b"/>
  </g>
  <g id="Group_2927" data-name="Group 2927" transform="translate(16 24) rotate(-90)">
    <path id="Path_7-3" data-name="Path 7" d="M0,0H24V24H0Z" fill="none"/>
    <path id="Path_8-3" data-name="Path 8" d="M6.364,4.95,11.314,0l1.414,1.414L6.364,7.778,0,1.414,1.414,0Z" transform="translate(5.636 8.222)" fill="#6c747b"/>
  </g>
  <g id="Group_2928" data-name="Group 2928" transform="translate(24 24) rotate(-90)">
    <path id="Path_7-4" data-name="Path 7" d="M0,0H24V24H0Z" fill="none"/>
    <path id="Path_8-4" data-name="Path 8" d="M6.364,4.95,11.314,0l1.414,1.414L6.364,7.778,0,1.414,1.414,0Z" transform="translate(5.636 8.222)" fill="#6c747b"/>
  </g>
</svg>
