<svg id="Group_3059" data-name="Group 3059" xmlns="http://www.w3.org/2000/svg" xmlns:xlink="http://www.w3.org/1999/xlink" width="55" height="55.028" viewBox="0 0 55 55.028">
  <defs>
    <clipPath id="clip-path">
      <rect id="Rectangle_1941" data-name="Rectangle 1941" width="55" height="55.028" fill="#45c9a5"/>
    </clipPath>
  </defs>
  <g id="Group_3059-2" data-name="Group 3059" clip-path="url(#clip-path)">
    <path id="Path_4914" data-name="Path 4914" d="M55,25.974a10.669,10.669,0,0,0-.3-1.672,5.956,5.956,0,0,0-3.874-3.516,2.285,2.285,0,0,1-1.364-.891,4.655,4.655,0,0,1-.692-4.509,6.836,6.836,0,0,0,.357-4.3,6.614,6.614,0,0,0-1.77-3.012,8.294,8.294,0,0,0-1.935-1.6A6.37,6.37,0,0,0,39.3,6.338a2.7,2.7,0,0,1-1.876.194,5.92,5.92,0,0,1-1.172-.382,3.681,3.681,0,0,1-2.32-2.408A5.225,5.225,0,0,0,31.741.853,5.688,5.688,0,0,0,29.027,0H27.739c-.161.153-.357.1-.545.094h-.645c0-.013,0-.027,0-.04A5.427,5.427,0,0,0,21.7,2.648a5.985,5.985,0,0,0-1.069,3.319,1.584,1.584,0,0,1-.487,1.2,2.393,2.393,0,0,1-3.179.023A6.37,6.37,0,0,0,12.887,5.66a6.538,6.538,0,0,0-4.572,1.8,6.878,6.878,0,0,0-2.6,5.417,7.349,7.349,0,0,0,.9,3.222,3.634,3.634,0,0,1-.349,3.856,1.885,1.885,0,0,1-1.163.814,7.041,7.041,0,0,0-2.07.868C1.373,22.657.116,23.963.029,26.079-.006,26.92,0,27.758,0,28.6A5.009,5.009,0,0,0,1.7,32.33a8.748,8.748,0,0,0,2.955,1.8,2.2,2.2,0,0,1,1.033.738,4.5,4.5,0,0,1,.553,4.789,6.044,6.044,0,0,0-.463,3.508,6.741,6.741,0,0,0,1.715,3.51A6.647,6.647,0,0,0,15.6,48.619a3.4,3.4,0,0,1,2.644-.175A4,4,0,0,1,21.062,51.1a5.309,5.309,0,0,0,4.477,3.813,15.226,15.226,0,0,0,3.049.074,4.861,4.861,0,0,0,1.738-.25A6.546,6.546,0,0,0,34,50.977a5.389,5.389,0,0,1,.422-.924A4.137,4.137,0,0,1,38.9,48.408c.44.149.878.309,1.325.434a7.273,7.273,0,0,0,4.218-.035,7.4,7.4,0,0,0,3.37-2.458,6.4,6.4,0,0,0-.192-8.514,1.368,1.368,0,0,1-.395-.626,2.4,2.4,0,0,1,2.053-2.843c.286-.024.565-.087.847-.131,2.131-.336,4.773-2.524,4.806-4.951A.407.407,0,0,1,55,28.979ZM39.761,21.853a3.632,3.632,0,0,1-.452.528Q32.7,29,26.08,35.619a2.573,2.573,0,0,1-1.978.773,1.964,1.964,0,0,1-1.409-.559c-2.374-2.378-4.759-4.746-7.124-7.134a2.184,2.184,0,0,1,2.98-3.191c.477.43.92.9,1.375,1.354q1.973,1.971,3.945,3.943c.4.4.4.4.818-.016q5.783-5.783,11.562-11.569a2.207,2.207,0,0,1,2.438-.638,2.182,2.182,0,0,1,1.072,3.269" transform="translate(0 -0.001)" fill="#45c9a5"/>
  </g>
</svg>
