<svg xmlns="http://www.w3.org/2000/svg" xmlns:xlink="http://www.w3.org/1999/xlink" width="48" height="48" viewBox="0 0 48 48">
  <defs>
    <clipPath id="clip-path">
      <rect id="Rectangle_5" data-name="Rectangle 5" width="31.288" height="40.318" fill="#fff"/>
    </clipPath>
  </defs>
  <g id="admin_white" transform="translate(-1792 -1796)">
    <g id="Group_4611" data-name="Group 4611" transform="translate(1800 1800)">
      <g id="Group_9" data-name="Group 9" clip-path="url(#clip-path)">
        <path id="Path_14" data-name="Path 14" d="M24.567,161.059c.318.016.6.041.887.042,1.29,0,2.581-.016,3.871.009,1.194.024,1.994.71,1.962,1.625s-.788,1.535-1.953,1.536q-13.679.012-27.359,0c-1.2,0-1.989-.663-1.975-1.6.014-.892.784-1.545,1.939-1.565,1.576-.027,3.153-.007,4.835-.007-.125-1.584-.243-3.075-.359-4.566-.1-1.265-.23-2.528-.287-3.794a2.184,2.184,0,0,1,2.466-2.308q7.037-.021,14.075,0c1.6,0,2.579.913,2.486,2.366-.163,2.558-.39,5.112-.587,7.668-.014.177,0,.355,0,.589m-8.917-3.637a1.769,1.769,0,0,0,1.856-1.646,1.87,1.87,0,0,0-3.724.011,1.773,1.773,0,0,0,1.868,1.635" transform="translate(0 -123.958)" fill="#fff"/>
        <path id="Path_15" data-name="Path 15" d="M63.018,6.851a10.176,10.176,0,0,1-3.679,8.062,5.255,5.255,0,0,1-6.69.032,10.26,10.26,0,0,1-3.48-10.222c.5-2.732,3.675-4.8,6.913-4.721,3.463.081,6.344,2.252,6.777,5.124.086.571.108,1.15.16,1.725" transform="translate(-40.332 0)" fill="#fff"/>
        <path id="Path_16" data-name="Path 16" d="M31.783,114.22c.123-1.736.257-3.335.343-4.937a14.225,14.225,0,0,0,.023-3.063,4.358,4.358,0,0,0-4.263-3.515q-1.977-.054-3.956,0a.982.982,0,0,1-1.088-.65c-.122-.295-.335-.551-.471-.842a1.079,1.079,0,0,0-1.192-.686,3.268,3.268,0,0,1-.79,0,1.406,1.406,0,0,0-1.708,1,1.675,1.675,0,0,1-2.012,1.19,28.38,28.38,0,0,0-3.163-.019,4.4,4.4,0,0,0-4.521,4.658c.067,2.048.26,4.091.393,6.136.013.2,0,.4,0,.674a16.3,16.3,0,0,1-1.922-.015,1.493,1.493,0,0,1-1.4-1.474c-.029-2.867-.111-5.749.137-8.6.2-2.353,1.788-3.875,3.976-4.706,1.2-.456,2.42-.874,3.646-1.262A1.5,1.5,0,0,0,15,96.976a6.3,6.3,0,0,1,.349-.9c.233-.591.6-.743,1.167-.4,1.149.7,2.321,1.367,3.453,2.1a.99.99,0,0,0,1.255.014c1.078-.7,2.2-1.34,3.308-2,.822-.486,1.119-.449,1.352.44a2.857,2.857,0,0,0,2.32,2.167c.9.235,1.763.624,2.652.917a6.132,6.132,0,0,1,4.337,5.871c.023,2.315.012,4.63,0,6.946a1.83,1.83,0,0,1-2.033,2.084c-.429.01-.859,0-1.385,0" transform="translate(-4.966 -78.683)" fill="#fff"/>
      </g>
    </g>
    <g id="Rectangle_48" data-name="Rectangle 48" transform="translate(1792 1796)" fill="#fff" stroke="#707070" stroke-width="1" opacity="0">
      <rect width="48" height="48" stroke="none"/>
      <rect x="0.5" y="0.5" width="47" height="47" fill="none"/>
    </g>
  </g>
</svg>
