<svg id="Group_4488" data-name="Group 4488" xmlns="http://www.w3.org/2000/svg" width="18" height="18" viewBox="0 0 18 18">
  <path id="Path_5191" data-name="Path 5191" d="M0,0H18V18H0Z" fill="none"/>
  <path id="Path_5192" data-name="Path 5192" d="M15,11.947V14.3a.667.667,0,0,1-.62.665c-.291.02-.529.031-.713.031A10.666,10.666,0,0,1,3,4.333q0-.276.031-.713A.667.667,0,0,1,3.7,3H6.053a.333.333,0,0,1,.332.3c.015.153.029.275.043.368a9.267,9.267,0,0,0,.805,2.667.3.3,0,0,1-.1.378L5.7,7.741A8.7,8.7,0,0,0,10.26,12.3l1.027-1.436a.308.308,0,0,1,.382-.1,9.268,9.268,0,0,0,2.667.8c.093.013.215.028.367.043a.333.333,0,0,1,.3.332Z" transform="translate(0)" fill="#545454"/>
</svg>
