<svg xmlns="http://www.w3.org/2000/svg" width="360.756" height="461.402" viewBox="0 0 360.756 461.402">
  <g id="nddb" transform="translate(-75.622 -33.487)">
    <g id="Group_3" data-name="Group 3" transform="translate(77.707 33.487)">
      <path id="Path_736" data-name="Path 736" d="M129.035,27.152c-2.889-.093-4.66.186-2.423,3.728,4.194,6.617,4.939,14.352,5.405,21.9a100.729,100.729,0,0,1-5.965,40.634c-2.144,6.058-5.965,11.463-7.735,17.707v1.491c-2.33,5.592-.839,10.531,2.33,15.284v1.491a29.963,29.963,0,0,0,0,7.642c-.093,1.3-1.118,2.516,0,3.821,1.4,2.7,3.262,2.61,5.312.746a1.752,1.752,0,0,1,1.584-.746,106.562,106.562,0,0,0,10.9.373,9.66,9.66,0,0,0,5.871-2.144c6.151-5.5,6.9-12.861,6.337-20.317-.559-7.269-.839-14.446,1.4-21.529a32.62,32.62,0,0,1,1.584-5.126c.373-1.3.839-2.61,1.118-4.007.746-2.144.652-4.473,1.4-6.71a114.865,114.865,0,0,0,0-41.473,36.011,36.011,0,0,1-.932-4.567c-.652-2.423-1.212-4.939-1.957-7.363-.839-2.7-2.982-3.728-5.5-4.1-2.144-.28-4.473-.373-5.405,2.33.373,7.269,2.144,14.259,3.262,21.435,1.678,10.718,2.423,21.435.932,32.246a44.986,44.986,0,0,1-5.592,16.5,21.857,21.857,0,0,0-2.516,14.725c.932,5.871,2.423,11.65,3.076,17.614.373,3.728-.652,6.058-3.262,6.9-2.516.839-4.939-.466-6.71-3.821-1.3-2.516-2.144-5.219-1.4-8.108,1.3-4.287.839-8.574,0-12.768A16.862,16.862,0,0,1,132.39,97.8c3.169-4.939,4.66-10.718,5.592-16.5,2.33-14.725,2.516-29.357-1.118-43.9a23.3,23.3,0,0,0-3.076-7.363C132.483,28.643,131.178,27.152,129.035,27.152Z" transform="translate(-50.236 -21.747)" fill="#fff"/>
      <path id="Path_737" data-name="Path 737" d="M407.056,164.856c3.635-9.786,6.8-19.665,8.108-30.009C417.4,117.139,412,99.9,397.456,89.367A22.418,22.418,0,0,0,385.9,84.8c3.821,4.753,7.363,8.667,10.345,13.048,9.227,13.7,12.116,28.612,9.133,44.641a27.188,27.188,0,0,1-5.219,11.743,5.266,5.266,0,0,0-2.05,2.237,36.067,36.067,0,0,1-1.957,3.169,62.669,62.669,0,0,0-7.735,10.718c-1.864,3.169-1.678,5.685,1.025,8.108a24.13,24.13,0,0,0,6.058,3.914c3.728,1.584,4.846,1.212,6.99-2.423a39.841,39.841,0,0,1,1.584-4.287C405.005,172.032,407.708,168.957,407.056,164.856Z" transform="translate(-68.517 -25.899)" fill="#fff"/>
      <g id="Group_2" data-name="Group 2" transform="translate(2.905 127.789)">
        <path id="Path_738" data-name="Path 738" d="M142,266.9Z" transform="translate(-54.829 -166.077)" fill="#fff"/>
        <path id="Path_739" data-name="Path 739" d="M387.176,261.5c.466-5.5-.932-10.345-5.219-14.073-3.821-1.025-4.753-1.3-5.312.28.186.746.373,1.491.559,2.33.373,2.33.746,4.753,1.212,7.083a90.327,90.327,0,0,1,1.678,24.511c-.093,2.33.186,5.778-3.076,6.244-2.982.466-4.66-2.144-5.871-4.66-5.871-12.116-7.176-24.977-6.244-38.118.093-1.957.746-4.007,2.982-5.033a3.636,3.636,0,0,1,2.33-.466,3.537,3.537,0,0,0,.746-4.939,41.173,41.173,0,0,0-21.715-11.929c-3.169-.652-4.38-1.957-4.1-5.033a14.65,14.65,0,0,0-1.025-5.965,6.394,6.394,0,0,0-4.66-4.66c-13.42-3.728-22.833-12.954-32.06-22.461-5.871-6.058-10.9-12.768-16.869-18.733-3.262-3.169-6.8-5.685-11.37-6.71-18.826-3.541-44.082,14.259-42.777,38.118.373,7.642.093,7.456-7.456,6.8-17.148-1.3-34.11-4.38-50.979-7.735-2.889-.559-5.778.186-8.667-.559H167.79c-5.685-2.61-12.861-3.635-19.105-3.821-1.3,0-2.61,0-3.914-.093-2.516-.28-4.939-1.118-7.363-1.491-4.1-.746-8.388-.186-12.582,0-4.753.28-9.506-.186-14.259-.373-4.38-.093-8.574,1.118-12.861,1.584a20.321,20.321,0,0,0-4.1,1.025c-1.771.652-3.448,1.4-5.219,2.05-8.481,2.144-15.1,7.456-21.435,13.141a34.044,34.044,0,0,1-2.516,2.8,36.277,36.277,0,0,0-7.083,9.32,11.2,11.2,0,0,1-2.05,3.355c-4.1,8.295-6.71,17.055-6.71,26.282,0,6.058-.652,12.209,1.025,18.173.559,1.864.839,3.821,1.212,5.685.466,3.821,1.957,7.363,3.169,11a74.279,74.279,0,0,1,3.076,18.733c.746,13.514-2.144,26.841-1.678,40.261a66.244,66.244,0,0,0,4.38,20.783,42.272,42.272,0,0,1,1.678,5.871,24.363,24.363,0,0,0,2.516,7.176c.839,1.584,2.144,2.7,4.007,2.144,1.957-.559,2.05-2.237,1.771-3.728-.839-4.473.28-8.854.652-13.234,1.957-3.169-.839-6.9,1.212-9.972,1.025-9.32,1.584-18.826-.746-27.959-1.957-7.735-4.194-15.471-6.71-23.486,4.846,6.8,9.6,13.234,13.793,20.037A14.387,14.387,0,0,1,80,333.073c-1.025,3.635-.932,7.549-1.491,11.277,0,4.66-.28,9.32-.652,13.98-.373,5.126.839,10.252.746,15.471a3.609,3.609,0,0,0,2.8,3.728,4.354,4.354,0,0,1,3.541,3.914c.466,2.423,2.237,3.914,4.287,5.033,4.473,2.237,9.04,1.025,13.607.373,2.237-.652,4.007-2.144,2.8-4.38-4.66-8.2-8.2-16.962-12.209-25.536-2.237-7.176-.093-13.514,3.821-19.385a26.62,26.62,0,0,1,3.914-4.66c2.61-2.516,4.1-5.5,3.728-9.133a14.383,14.383,0,0,1,.932-6.337,4.651,4.651,0,0,1,4.473-3.541c2.33.093,3.355,1.957,3.728,4.194.746,4.007,1.4,7.922,2.33,11.929,1.212,5.219,2.889,6.617,7.363,6.524,4.38-.093,5.312-3.076,5.871-6.617.652-4.846,1.3-9.786,2.237-14.539,1.864-10.252,9.6-10.158,16.123-6.524,7.083,3.914,9.786,10.624,10.718,18.267a52.354,52.354,0,0,0,1.491,6.617c.746,2.7,2.05,4.38,5.312,4.473,3.448,0,4.846-1.771,5.5-4.66,1.4-5.405,2.61-10.811,4.194-16.123,1.4-4.846,3.821-6.71,8.854-6.71,10.624-.093,21.156-.186,31.78,0a106.752,106.752,0,0,1,13.234,1.584,6.411,6.411,0,0,1,4.38,2.7c8.761,11.743,11.556,24.79,9.692,39.143-.186,1.491-.093,3.076-.186,4.567-2.889,3.448-1.771,7.735-2.516,11.556-.559,2.982-.093,6.058-.186,9.04,0,2.05.652,3.728,2.7,4.567,1.491.28,3.075-1.212,4.567,0-.186,5.871,1.584,7.735,7.549,8.388,2.982.373,5.778.466,8.481-.839,2.144-.093,3.821-.466,1.4-2.8a3.473,3.473,0,0,1-1.4-2.516c-.559-1.771-1.212-3.541-3.076-4.567a17.039,17.039,0,0,1-.746-2.33,68.1,68.1,0,0,0-1.4-9.6c-.746-2.889.093-6.244.373-9.32s.746-6.151,1.025-9.32a1.513,1.513,0,0,1,.746-1.491c4.007-4.473,6.431-9.972,9.227-15.191,4.194-7.642,7.829-15.657,11.277-23.672a30.828,30.828,0,0,0,1.678-20.41c-.559-2.33-1.4-4.66-1.212-7.083a2.571,2.571,0,0,1,1.4-2.609c6.71-2.144,13.42,2.516,14.073,9.786.652,6.337-1.771,11.929-4.1,17.614-.373.839-.746,1.771-1.118,2.609a232.164,232.164,0,0,1-20.41,38.677c-1.212,1.771-2.516,3.542-3.635,5.405-2.33,4.1-.839,7.176,3.821,8.108a15.409,15.409,0,0,1,2.982.652c.932.28,1.957.466,2.889.746,4.38,1.3,4.939,1.957,4.939,6.617a21.7,21.7,0,0,0,1.212,7.735,9.079,9.079,0,0,0,2.889,3.821,4.707,4.707,0,0,1,2.05,3.076c.373,4.567,3.076,6.617,7.456,6.9a13.2,13.2,0,0,1,1.864.373c2.7.186,5.5.746,7.922-1.118h.746c3.355-1.491,4.1-4.939,1.491-7.549a7.94,7.94,0,0,1-1.491-1.584c-2.516-3.635-5.126-7.269-7.549-10.9a29.342,29.342,0,0,1-2.889-5.312c-.746-1.771-.839-3.821,1.025-5.219,1.957-1.4,4.007-.652,5.592.746a15.546,15.546,0,0,1,2.982,3.914c3.635,6.058,11.836,9.227,19.012,8.2,9.506-1.3,16.5-6.617,23.206-12.768a6.957,6.957,0,0,0,2.33-2.33c7.363-9.6,10.811-21.435,18.36-30.941,2.05-2.61,3.262-5.592,2.423-9.133a9.5,9.5,0,0,1,1.864-7.549c2.516-3.635,3.914-7.829,5.685-11.929.932-.839.373-2.05.746-3.076,2.516-5.592,5.126-11.184,7.642-16.775C388.574,273.147,387.828,267.276,387.176,261.5ZM231.91,304.927c-2.237-.28-4.38-1.3-6.617-1.864-9.04-2.609-18.08-4.194-27.68-2.05-15.191,3.355-30.475,3.728-45.573-.652a45.061,45.061,0,0,0-15-1.678c-9.506.466-17.521,5.219-25.536,9.413-6.431,3.355-12.768,6.9-17.055,13.048-3.169,4.473-4.939,4.287-8.295,0a174.706,174.706,0,0,1-16.4-24.7c-8.947-16.775-15.564-34.11-11.277-53.775,2.33-10.9,6.617-20.6,14.352-28.891,8.015-8.481,17.8-13.42,28.891-16.123a70.882,70.882,0,0,1,20.783-1.864c2.05.093,4.007.839,4.66,2.8.652,2.144-.932,3.448-2.7,4.473-3.169,2.05-6.337,4.1-9.413,6.337a42.212,42.212,0,0,0-17.055,24.045c-1.584,5.5.466,9.693,5.592,12.209,2.423,1.212,4.846,2.237,7.083,3.635a6.892,6.892,0,0,1,3.076,8.481c-2.61,7.269-7.083,13.327-12.3,18.919-3.262,1.864-8.108,1.771-8.667,7.083a2.176,2.176,0,0,1-.932,1.118c-4.1,2.8-5.219,6.71-4.66,11.463.28,2.237,0,4.567.093,6.8,0,1.491-.093,3.262,1.957,3.542,1.864.28,3.914.746,4.66-1.864a25.754,25.754,0,0,1,6.9-7.642c1.957-1.4,3.914-2.8,5.871-4.1,8.388-5.5,15.564-12.116,20.876-20.6,2.8-4.473,4.753-9.413,6.9-14.166,1.491-1.491.746-3.635,1.491-5.312.559-2.889,1.025-5.685,1.584-8.574.28-1.4.932-2.516,2.33-2.7,1.678-.186,2.05,1.4,2.33,2.516,2.144,6.431,3.262,13.141,5.965,19.385h0c.466.466,1.118.746,1.3,1.3,5.592,11.836,16.682,14.539,28.052,16.216,8.947,1.3,18.08.652,27.12.932,9.32.28,18.08,2.33,25.163,9.133,2.7,2.609,5.033,5.312,6.058,9.04S235.731,305.487,231.91,304.927ZM281.77,214.9c-6.99-.746-15.1,4.287-17.148,11a42.961,42.961,0,0,0-1.584,9.692,161.18,161.18,0,0,0,1.678,28.425c.186,3.821-.839,7.549-1.3,11.277-1.491,10.531-4.567,20.69-6.617,31.128a75.3,75.3,0,0,1-5.871,17.987c-.652,1.4-1.584,3.635-3.541,1.678-4.66-4.38-8.388-9.6-7.829-16.216.466-6.617,1.771-13.234,2.423-19.944,1.212-13.886.652-27.68-.559-41.38-1.118-12.768.652-24.231,9.413-34.017,3.635-4.1,3.635-8.388,1.025-12.861a25.888,25.888,0,0,1-2.889-7.735c-2.05-9.227,3.448-19.478,11.556-21.529,1.3-.373,2.7-.559,4.1-.839,8.947-1.771,19.292,4.287,20.69,12.582,1.4,8.2,5.312,14.912,11.09,20.783,3.728,3.821,6.9,7.829,6.8,13.886-.093,8.295-4.753,14.259-9.133,20.41-1.212,1.678-3.355,1.4-4.846-.559a28.632,28.632,0,0,1-3.914-8.574c-1.025-3.448.093-6.8.093-10.158C285.218,217.509,284.939,215.272,281.77,214.9Zm14.818,59.553c-5.033-.093-9.227-3.635-11.37-9.6s-2.144-5.965,3.821-4.939a7.97,7.97,0,0,0,1.491,0c4.194.932,8.2,2.237,10.718,6.151.186.746.466,1.491.652,2.143C302.833,272.868,301.435,274.545,296.588,274.452Zm2.423,78.379c-2.144,2.609-4.753,3.262-7.363,2.05-2.889-1.4-4.007-3.914-2.889-7.363,3.728-11.65,9.133-22.554,14.352-33.551a78.282,78.282,0,0,0,6.431-19.292c1.3-6.99,1.025-13.886.28-20.969-.373-3.635-.932-11.184-6.151-10.718a19.112,19.112,0,0,1-11.463-6.151c-1.771-2.423-4.38-4.287-5.126-7.363-.28-1.025-1.4-2.237-.373-3.169,1.118-1.025,2.423-.093,3.448.559a17.365,17.365,0,0,0,9.972,3.169c7.829-.186,6.617.839,6.71-6.617a37.89,37.89,0,0,1,1.771-12.954,65.6,65.6,0,0,1,6.617-12.022,5.656,5.656,0,0,1,.652-.932c.373-.373.839-.559,1.212-.932,1.957-1.584,2.516-4.1,5.033-5.219,3.448-1.491,7.549,3.262,8.761,6.058a9.19,9.19,0,0,0,1.212,2.33c.186.186.373.28.466.559a1.756,1.756,0,0,1,.186.746,23.172,23.172,0,0,1,.373,4.38,9.455,9.455,0,0,1-2.7,6.617c-4.1,3.821-7.549,8.108-6.8,14.259v35.135c0,14.446-1.491,28.612-7.735,41.845C310.941,333.446,306.374,343.884,299.011,352.831Zm16.5,10.065c-5.778-4.66-7.363-11-4.1-17.614a274.044,274.044,0,0,0,13.048-29.916c5.405-15,7.456-30.475,5.033-46.319-2.144-13.98.746-26.654,8.947-38.118,3.355-4.753,4.753-4.846,9.693-1.584.839,1.212,1.4,2.61.839,3.914-1.4,3.448-2.516,6.524-3.914,9.786-1.864,3.914-1.584,8.108-1.491,12.209a6.62,6.62,0,0,1,.746,1.678,321.143,321.143,0,0,1,1.584,39.05,33.3,33.3,0,0,1-1.491,8.947c.186,2.889-1.025,5.5-1.584,8.2-3.355,15.75-7.083,31.407-13.141,46.319C326.971,365.6,320.726,367.183,315.507,362.9ZM361.826,299.8a19.1,19.1,0,0,1-2.237,8.388,24.53,24.53,0,0,0-3.169,8.481c-1.212,8.108-1.3,16.4-3.728,24.324-1.3,4.38-2.423,8.854-5.871,12.209q-3.355,3.215-6.71,0a7.4,7.4,0,0,1-2.33-7.922c1.4-5.871,3.821-11.277,5.965-16.869a127.231,127.231,0,0,0,8.108-38.024c.373-6.8.839-13.7-.559-20.5.28-6.99-.932-13.793-2.33-20.6a23.916,23.916,0,0,1-.652-8.108c.093-3.728.839-7.735,4.473-10.252,1.3-2.144,3.355-3.541,5.685-2.33s1.212,3.542.466,5.405a44.416,44.416,0,0,0-2.423,15.657c0,6.431,2.143,12.4,3.169,18.639h0c.186.28.559.559.652.932A129.22,129.22,0,0,1,361.826,299.8Z" transform="translate(-48.466 -158.717)" fill="#fff"/>
      </g>
      <path id="Path_740" data-name="Path 740" d="M391.3,245.344c3.355-.373,4.939,1.864,6.337,4.287,1.025,1.864,1.864,3.728,2.889,5.592.093-1.678-.373-4.007,2.516-1.864.746.466,1.678-.093,2.33-.373-2.516-5.5-7.829-9.972-12.116-13.886C394.935,241.989,393.257,244.039,391.3,245.344Z" transform="translate(-68.884 -36.396)" fill="#fff"/>
      <path id="Path_741" data-name="Path 741" d="M187.692,39.478a10.132,10.132,0,0,1,0,8.388,4.79,4.79,0,0,0,0,5.312c-.093,17.521-1.771,35.135,0,52.656a34.177,34.177,0,0,0,1.491,16.775c1.584,3.635.932,7.642,1.118,11.37.093,2.237.652,4.66.373,6.99,1.4,2.982,4.66,4.38,9.227,3.914,8.761-.932,13.141-5.126,15.284-14.725a47.374,47.374,0,0,0,.28-6.337,2.66,2.66,0,0,0,0-1.212,24.891,24.891,0,0,1,0-3.728,46.608,46.608,0,0,1,3.262-17.055,17.433,17.433,0,0,1,4.66-6.9c2.516-1.957,1.957-3.728-.093-5.592a12.164,12.164,0,0,0-6.99-3.448c-4.1-.466-4.753.093-5.405,4.287a5.667,5.667,0,0,1-.839,1.678c0,3.076-1.025,5.965-1.584,8.947-1.771,10.065-.932,20.317-2.237,30.382-.373,2.516-.466,5.126-2.237,7.176a13.342,13.342,0,0,1-1.957,1.118,3.546,3.546,0,0,1-3.821-.093c-1.957-1.118-1.491-2.889-1.4-4.567.093-2.144.559-4.194.839-6.244a19.493,19.493,0,0,1,.559-5.219,17.33,17.33,0,0,0,.28-4.38,18.077,18.077,0,0,1,.466-6.337,166.781,166.781,0,0,0-.093-24.6c-.186-2.423-.466-4.753-2.61-6.524a1.867,1.867,0,0,1-.559-2.423c2.144-3.914.373-7.642-.466-11.37a32.379,32.379,0,0,1,0-13.048c.839-6.524,1.678-13.048.373-19.665-1.584-8.2-3.728-10.065-12.116-9.413-1.771.373-3.355,1.025-4.1,2.889a1.6,1.6,0,0,0,.186,1.118c1.4,1.584,4.007.186,5.312,1.957a9.458,9.458,0,0,0,1.771,2.516c1.212,1.118.559,2.516.746,3.821A1.433,1.433,0,0,0,187.692,39.478Z" transform="translate(-54.466 -21.863)" fill="#fff"/>
      <path id="Path_742" data-name="Path 742" d="M178.714,29.594v-.746a2.211,2.211,0,0,0-1.864-.652c-1.025.186-2.144.652-3.076-.466a5.122,5.122,0,0,0-.839-.652,17.753,17.753,0,0,0-4.287-1.4c-2.61,0-5.592-1.3-7.549,1.678,0,2.05,1.771,2.33,3.076,3.076a5.615,5.615,0,0,0,2.33,2.33c.559,1.025,1.025,2.05,1.584,3.076,1.212,1.118.746,2.61.746,3.914V76.285a2.39,2.39,0,0,0-.559,1.771,14.92,14.92,0,0,1,.186,4.567V132.11c0,2.8-.373,5.871,3.355,6.8,2.516.652,4.66-1.584,5.871-5.778,1.4-4.846,1.025-9.879,1.118-14.725.093-5.033.466-10.9-.652-15.937a30.657,30.657,0,0,1-.839-4.007,19.027,19.027,0,0,1,.746-4.007c1.025-4.473.28-8.761-.093-13.141s-.28-8.947-.373-13.327c-.093-9.227.186-18.36.093-27.586,0-2.61,1.3-4.846,2.05-7.269A3.154,3.154,0,0,0,178.714,29.594Z" transform="translate(-53.224 -21.858)" fill="#fff"/>
      <path id="Path_743" data-name="Path 743" d="M215.344,67.789c-2.7,5.312,2.516,8.667,3.448,13.141.093.559,1.4.932,2.144,1.3,2.516,1.118,5.592.652,8.015,2.144.839.559,1.678-.28,2.33-.839,4.1-3.262,4.38-8.481.746-12.4-.373-.373-.652-.839-1.118-1.025-6.617-3.076-6.151-9.227-6.431-14.912-.28-6.71-.093-13.42-.093-20.224-.186-1.771.28-3.541-.373-5.312-1.118-2.7-3.355-3.355-5.871-3.076-3.169.373-1.3,2.61-1.3,4.1-.093,2.423,0,4.846,0,7.269-1.025,8.947-.652,17.987-.746,26.934a2.471,2.471,0,0,1-.746,2.05c-.186.186-.28.373-.186.466C215.158,67.7,215.251,67.789,215.344,67.789Z" transform="translate(-56.862 -21.936)" fill="#fff"/>
      <path id="Path_744" data-name="Path 744" d="M111.753,50.285c-.28-.652-1.118-1.212-.839-2.05,2.61-8.2-2.982-12.4-8.295-16.589-2.61-2.144-5.778-3.169-8.854-4.38-2.516-2.33-5.405-1.957-8.388-1.491-4.66-.186-9.227,0-12.4,4.287-.932,1.3-2.516,1.118-3.914,1.118H54.53a8.293,8.293,0,0,0-4.473.746c-4.1,2.33-4.38,5.965-.746,9.133a2.588,2.588,0,0,0,1.864.932c.932.28,2.423.186,2.237,1.491-.093,1.118-1.491.559-2.33.746-2.33.373-3.635,2.144-5.033,3.728-1.584,4.66-.559,6.617,3.914,7.735.932.28,1.957.466,2.889.652,2.61.559,5.312-.373,7.922.746a3.411,3.411,0,0,1,.373,2.144,21.664,21.664,0,0,0,.373,4.939c.932,4.194.28,8.388.466,12.488.559,4.753,1.4,9.413,1.771,14.259a18.154,18.154,0,0,1,.652,5.5A5.455,5.455,0,0,0,64.6,97.63c.746,1.957.28,4.007.746,5.965A116.969,116.969,0,0,0,71.026,129.5a50.779,50.779,0,0,0,3.448,7.176c5.405,9.972,16.682,8.388,20.876.839a8.571,8.571,0,0,0,1.3-2.61v-.746a18.26,18.26,0,0,0,1.584-7.735c.466-13.7-1.584-27.214-2.982-40.82a105.866,105.866,0,0,1-.093-13.327c.093-2.61,1.4-4.38,4.473-4.567s5.871-1.771,8.388-3.448C112.964,60.91,114.083,56.157,111.753,50.285ZM104.2,60.258c-4.38,1.025-8.481-.093-12.675-1.025-2.889-.652-4.1.466-3.914,3.169.746,10.345,1.584,20.69,1.957,31.035.373,9.693.093,19.292.093,28.984a22.458,22.458,0,0,1-.746,5.592c-.466,1.957-1.491,3.355-3.262,3.821-2.05.466-3.728-.746-4.846-2.33a19.188,19.188,0,0,1-2.7-6.71c-3.635-17.614-4.287-35.6-5.312-53.5-.466-8.108,1.025-16.216.746-24.324a22.372,22.372,0,0,1,2.33-11.743c2.144-4.287,7.456-4.939,10.252-.932a8.518,8.518,0,0,0,6.244,3.728c3.821.652,7.922.466,11.277,2.982,1.118.932,2.33,1.771,1.957,3.355a3.022,3.022,0,0,1-3.355,2.516c-2.889-.093-5.871.373-8.761-.28-1.771-.466-3.914-1.212-4.38,1.212-.466,2.33,1.957,2.516,3.635,2.982,4.194,1.118,8.295,2.516,11.836,5.126C107.932,56.343,107.839,58.3,104.2,60.258Z" transform="translate(-45.349 -21.86)" fill="#fff"/>
      <path id="Path_745" data-name="Path 745" d="M416.19,230.357c-1.957-4.939-3.914-9.786-8.76-13.048a21.016,21.016,0,0,1-7.549-9.413,48.975,48.975,0,0,0-7.363-12.4c.093-1.771-1.025-2.8-2.143-3.821-1.678-1.3-3.448-2.61-5.033-4.1-4.38-3.728-9.506-5.033-15.1-5.405a16.088,16.088,0,0,1-4.194-.466,35.389,35.389,0,0,1-4.753-1.4c-1.491-.466-3.075-.932-4.567-1.491a19.106,19.106,0,0,1-3.821-1.491,62.212,62.212,0,0,1-10.159-6.058,11.88,11.88,0,0,1-2.609-2.144c-1.3-1.212-2.609-2.516-3.821-3.821a19.509,19.509,0,0,1-2.237-2.61,57.885,57.885,0,0,1-6.71-11,22.643,22.643,0,0,1-1.491-3.448,78.774,78.774,0,0,1-3.914-12.3,24.8,24.8,0,0,1-1.118-5.219c-1.025-4.1-1.3-8.388-1.864-12.582-.932-6.524-1.118-13.048-1.584-19.571-2.516-2.61-4.194-2.237-5.5,1.4a68.865,68.865,0,0,0-3.728,17.8,101.115,101.115,0,0,0,1.212,26c2.7,7.363,5.033,14.912,9.133,21.715,11.37,19.105,27.866,29.45,50.326,30.2,4.007.093,4.194.466,2.516,4.194-2.7,5.778-2.516,6.71,3.169,9.413,11.09,5.312,18.826,14.166,25.909,23.672,1.771,2.423,2.609,5.592,5.871,6.71,3.542,1.771,6.151-.093,8.574-2.144C417.308,235.576,417.215,233.06,416.19,230.357Zm-27.4-21.9c-1.3-.093-3.448.559-3.821-2.05-.186-1.4,3.821-4.846,5.405-4.473,1.771.373,3.635,1.3,3.542,3.355C393.916,208.363,391.493,208.549,388.79,208.456Zm20.317,19.758a2.007,2.007,0,0,1-1.957-2.33,1.964,1.964,0,0,1,2.237-2.05c1.3,0,2.143.652,2.237,2.33C411.157,227,410.878,228.4,409.107,228.214Z" transform="translate(-63.205 -26.722)" fill="#fff"/>
      <path id="Path_746" data-name="Path 746" d="M301.452,56.829c-.932-1.118.093-2.7-.746-3.821-.559-2.516-1.025-5.126-1.584-7.642-.559-1.212-.466-2.8-1.491-3.821a19.217,19.217,0,0,1-2.33-5.312c-1.957-5.685-6.431-9.04-11.277-12.022-1.118-.559-2.33-1.118-3.448-1.771a8.014,8.014,0,0,0-3.635-.839c-4.753.093-6.71,3.076-4.66,7.269,2.05,4.287,5.126,7.829,7.735,11.743,3.635,5.219,4.287,10.252,1.118,15.937-2.237,4.1-4.007,8.481-6.71,12.3-.932,1.3-1.491,3.076-3.541,2.889-2.423-.186-2.423-2.237-2.889-3.914l-.28-1.118a13.706,13.706,0,0,1-.559-3.914,5.278,5.278,0,0,0-.28-1.678,10.407,10.407,0,0,1,1.957-9.879c1.3-1.678,1.678-3.448.186-5.219-1.771-2.144-1.491-3.821.746-5.312,2.33-1.584,2.8-3.635.466-5.5-2.05-1.678-2.05-3.821-2.237-6.151-.186-1.864-.186-4.194-3.262-2.8-3.169,2.05-4.007,5.778-5.778,8.761-4.473,7.735-8.574,15.75-12.861,23.672-1.118,2.05-1.491,4.287-2.144,6.431a3.549,3.549,0,0,0-1.771,3.169c-.28,7.176-.746,14.446.746,21.529a3.621,3.621,0,0,0,1.025,1.957c1.3,6.524,2.237,13.048,4.567,19.292.746,1.957,1.584,3.914,2.33,5.871,2.61,3.169,4.194,7.083,7.735,9.692,5.592,4.38,7.922,4.753,13.98,1.118,1.025-.559,2.05-2.144,3.262-.652,1.025,1.3.186,2.7-.746,3.821-.466.559-1.212.932-1.771,1.491-.466.466-.932,1.025-.652,1.678a1.753,1.753,0,0,0,1.864,1.118c2.33-.466,4.753-.652,6.71-2.33a48.076,48.076,0,0,0,14.912-23.858,180.35,180.35,0,0,0,4.567-21.063c.932-1.118-.186-2.7.746-3.821C301.359,75.1,302.1,65.962,301.452,56.829Zm-17.521,57.689c-1.118,2.516-2.609,5.405-5.219,6.617-3.076,1.491-6.524-.186-9.6-.932a24.178,24.178,0,0,1-3.448-1.025c-4.846-2.05-7.642-6.8-8.854-11.743a13,13,0,0,1-.559-4.194c.186-1.3.746-2.516,1.025-3.728.559-2.61-.28-5.312-.373-8.015-.186-4.287,1.3-8.667,0-12.768-1.025-3.448-3.821-6.058-4.846-9.506-1.118-3.914.28-8.108.373-12.022,0-1.678.466-3.635,2.33-3.914,2.237-.373,2.516,1.771,2.982,3.262a122.783,122.783,0,0,0,7.176,18.36c2.889,5.871,7.269,6.058,11.37,1.025,4.1-5.126,6.9-10.811,9.506-16.775.466-1.118.932-2.7,2.516-2.33,1.212.28,1.491,1.491,1.678,2.7.373,1.957.932,3.914,1.4,5.871C292.5,82.178,290.921,98.674,283.931,114.518Z" transform="translate(-58.719 -21.6)" fill="#fff"/>
    </g>
    <path id="Path_747" data-name="Path 747" d="M24.282-6.257H19L9.412-20.868A21.128,21.128,0,0,1,8.244-22.8H8.179q.13,1.232.13,3.762V-6.257H3.363V-29.511H9.007l9.227,14.157q.632.957,1.168,1.9h.065a24.863,24.863,0,0,1-.13-3.195V-29.511h4.946Zm32.31,0H50.884L49.23-11.43H40.96L39.322-6.257H33.646l8.465-23.254h6.211ZM48.03-15.452l-2.5-7.816a10.185,10.185,0,0,1-.389-2.092h-.13a8.87,8.87,0,0,1-.405,2.027l-2.53,7.881Zm32.018-9.795H73.416V-6.257H68.162V-25.246h-6.6v-4.265H80.048ZM94.958-6.257H89.72V-29.511h5.238Zm21.656.405A10.824,10.824,0,0,1,108.474-9.1a11.673,11.673,0,0,1-3.146-8.473,12.508,12.508,0,0,1,3.195-8.919,11.06,11.06,0,0,1,8.465-3.405,10.555,10.555,0,0,1,8.051,3.259,12.017,12.017,0,0,1,3.073,8.595,12.308,12.308,0,0,1-3.186,8.838A10.937,10.937,0,0,1,116.614-5.852Zm.227-19.54a5.272,5.272,0,0,0-4.378,2.068,8.621,8.621,0,0,0-1.622,5.473,8.462,8.462,0,0,0,1.622,5.465,5.2,5.2,0,0,0,4.249,2.011,5.248,5.248,0,0,0,4.3-1.954,8.369,8.369,0,0,0,1.589-5.424,9.069,9.069,0,0,0-1.541-5.627A5.023,5.023,0,0,0,116.841-25.392ZM159.432-6.257h-5.286l-9.584-14.611a21.128,21.128,0,0,1-1.168-1.93h-.065q.13,1.232.13,3.762V-6.257h-4.946V-29.511h5.643l9.227,14.157q.632.957,1.168,1.9h.065a24.863,24.863,0,0,1-.13-3.195V-29.511h4.946Zm32.31,0h-5.708L184.38-11.43h-8.27l-1.638,5.173H168.8l8.465-23.254h6.211Zm-8.562-9.195-2.5-7.816a10.187,10.187,0,0,1-.389-2.092h-.13a8.869,8.869,0,0,1-.405,2.027l-2.53,7.881Zm31.856,9.195H201.187V-29.511h5.238v19.005h8.611Zm25.377,0V-29.511h8.238q12.389,0,12.389,11.335A11.462,11.462,0,0,1,257.659-9.5a12.468,12.468,0,0,1-9.008,3.243Zm5.238-18.989v14.74h2.595a7.011,7.011,0,0,0,5.343-2.043,7.752,7.752,0,0,0,1.938-5.562,7.033,7.033,0,0,0-1.922-5.23,7.326,7.326,0,0,0-5.392-1.905ZM291.388-6.257H285.68l-1.654-5.173h-8.27l-1.638,5.173h-5.676l8.465-23.254h6.211Zm-8.562-9.195-2.5-7.816a10.185,10.185,0,0,1-.389-2.092h-.13a8.871,8.871,0,0,1-.405,2.027l-2.53,7.881Zm23.245,9.195h-5.238V-29.511h5.238Zm31.337,0h-6.016l-3.616-5.984q-.405-.681-.778-1.216a6.755,6.755,0,0,0-.754-.916,3,3,0,0,0-.795-.584,2.017,2.017,0,0,0-.9-.2h-1.411v8.9H317.9V-29.511h8.3q8.465,0,8.465,6.324a6.549,6.549,0,0,1-.373,2.246,6.238,6.238,0,0,1-1.054,1.857,6.681,6.681,0,0,1-1.646,1.427,8.489,8.489,0,0,1-2.149.941v.065a3.332,3.332,0,0,1,1.005.527,7.2,7.2,0,0,1,.941.851,11.875,11.875,0,0,1,.868,1.046q.414.559.754,1.095Zm-14.27-19.33v6.47h2.27a3.764,3.764,0,0,0,2.708-.973,3.247,3.247,0,0,0,1.038-2.449q0-3.049-3.649-3.049Zm40.191-3.924-7.573,14.984v8.27h-5.238V-14.43L343.14-29.511h5.984l3.746,8.676q.1.243.535,1.9h.065a8.449,8.449,0,0,1,.5-1.832l3.811-8.741Z" transform="translate(73.049 458.041)" fill="#fff"/>
    <path id="Path_748" data-name="Path 748" d="M3.363-6.257V-29.511H11.6q12.389,0,12.389,11.335A11.462,11.462,0,0,1,20.609-9.5,12.468,12.468,0,0,1,11.6-6.257ZM8.6-25.246v14.74H11.2a7.011,7.011,0,0,0,5.343-2.043,7.752,7.752,0,0,0,1.938-5.562,7.033,7.033,0,0,0-1.922-5.23,7.326,7.326,0,0,0-5.392-1.905ZM41.8-6.257H27.85V-29.511H41.26v4.265H33.088v5.173h7.605v4.249H33.088v5.319H41.8ZM65.05-29.511,57.039-6.257H51.1L43.19-29.511h5.643l4.849,16.184a11.59,11.59,0,0,1,.47,2.319h.1a13.107,13.107,0,0,1,.5-2.384l4.816-16.119ZM81.785-6.257H67.839V-29.511H81.25v4.265H73.077v5.173h7.605v4.249H73.077v5.319h8.708Zm17.578,0H85.514V-29.511h5.238v19.005h8.611Zm12.13.405A10.824,10.824,0,0,1,103.352-9.1a11.673,11.673,0,0,1-3.146-8.473,12.508,12.508,0,0,1,3.195-8.919,11.06,11.06,0,0,1,8.465-3.405,10.555,10.555,0,0,1,8.051,3.259,12.017,12.017,0,0,1,3.073,8.595A12.308,12.308,0,0,1,119.8-9.209,10.937,10.937,0,0,1,111.493-5.852Zm.227-19.54a5.272,5.272,0,0,0-4.378,2.068,8.621,8.621,0,0,0-1.622,5.473,8.462,8.462,0,0,0,1.622,5.465,5.2,5.2,0,0,0,4.249,2.011,5.248,5.248,0,0,0,4.3-1.954,8.369,8.369,0,0,0,1.589-5.424,9.069,9.069,0,0,0-1.541-5.627A5.023,5.023,0,0,0,111.72-25.392Zm20.368,11.124v8.011h-5.238V-29.511h8.205q8.789,0,8.789,7.411a7.111,7.111,0,0,1-2.522,5.668,9.99,9.99,0,0,1-6.738,2.165Zm0-11.222v7.249h2.059q4.184,0,4.184-3.665,0-3.584-4.184-3.584ZM173.747-6.257h-5.173V-20.171q0-2.254.195-4.978h-.13a24.5,24.5,0,0,1-.73,3.081L162.46-6.257h-4.281l-5.546-15.649a30.448,30.448,0,0,1-.73-3.243h-.146q.211,3.438.211,6.032V-6.257h-4.719V-29.511h7.67l4.751,13.784A19.408,19.408,0,0,1,160.5-12.4h.1a33.476,33.476,0,0,1,.924-3.357l4.751-13.751h7.476Zm19.232,0H179.033V-29.511h13.411v4.265h-8.173v5.173h7.605v4.249h-7.605v5.319h8.708Zm24.649,0h-5.286l-9.584-14.611a21.131,21.131,0,0,1-1.168-1.93h-.065q.13,1.232.13,3.762V-6.257h-4.946V-29.511h5.643l9.227,14.157q.632.957,1.168,1.9h.065a24.863,24.863,0,0,1-.13-3.195V-29.511h4.946Zm21.649-18.989h-6.632V-6.257H227.39V-25.246h-6.6v-4.265h18.486ZM251.568-6.257V-29.511h8.465a10.571,10.571,0,0,1,5.984,1.427,4.59,4.59,0,0,1,2.092,4.022,4.76,4.76,0,0,1-1.273,3.292,6.688,6.688,0,0,1-3.251,1.962v.065a6.444,6.444,0,0,1,3.965,1.832,5.125,5.125,0,0,1,1.484,3.714,6.207,6.207,0,0,1-2.286,5.068A9.568,9.568,0,0,1,260.5-6.257Zm5.238-19.395v5.513h2.3a3.838,3.838,0,0,0,2.554-.786,2.681,2.681,0,0,0,.932-2.165q0-2.562-3.827-2.562Zm0,9.405v6.13h2.838a4.368,4.368,0,0,0,2.846-.843,2.817,2.817,0,0,0,1.03-2.3,2.628,2.628,0,0,0-1.013-2.189,4.484,4.484,0,0,0-2.83-.795ZM282.687-5.852A10.824,10.824,0,0,1,274.546-9.1a11.673,11.673,0,0,1-3.146-8.473,12.508,12.508,0,0,1,3.195-8.919A11.06,11.06,0,0,1,283.06-29.9a10.555,10.555,0,0,1,8.051,3.259,12.017,12.017,0,0,1,3.073,8.595A12.308,12.308,0,0,1,291-9.209,10.937,10.937,0,0,1,282.687-5.852Zm.227-19.54a5.272,5.272,0,0,0-4.378,2.068,8.621,8.621,0,0,0-1.622,5.473,8.462,8.462,0,0,0,1.622,5.465,5.2,5.2,0,0,0,4.249,2.011,5.248,5.248,0,0,0,4.3-1.954,8.369,8.369,0,0,0,1.589-5.424,9.069,9.069,0,0,0-1.541-5.627A5.023,5.023,0,0,0,282.914-25.392ZM317.989-6.257h-5.708l-1.654-5.173h-8.27l-1.638,5.173h-5.676l8.465-23.254h6.211Zm-8.562-9.195-2.5-7.816a10.187,10.187,0,0,1-.389-2.092h-.13a8.869,8.869,0,0,1-.405,2.027l-2.53,7.881ZM340.4-6.257h-6.016l-3.616-5.984q-.405-.681-.778-1.216a6.757,6.757,0,0,0-.754-.916,3,3,0,0,0-.795-.584,2.017,2.017,0,0,0-.9-.2H326.13v8.9h-5.238V-29.511h8.3q8.465,0,8.465,6.324a6.549,6.549,0,0,1-.373,2.246,6.238,6.238,0,0,1-1.054,1.857,6.681,6.681,0,0,1-1.646,1.427,8.489,8.489,0,0,1-2.149.941v.065a3.332,3.332,0,0,1,1.005.527,7.2,7.2,0,0,1,.941.851,11.875,11.875,0,0,1,.868,1.046q.413.559.754,1.095Zm-14.27-19.33v6.47h2.27a3.764,3.764,0,0,0,2.708-.973,3.247,3.247,0,0,0,1.038-2.449q0-3.049-3.649-3.049Zm16.443,19.33V-29.511h8.238q12.389,0,12.389,11.335A11.462,11.462,0,0,1,359.819-9.5a12.468,12.468,0,0,1-9.008,3.243Zm5.238-18.989v14.74h2.595a7.011,7.011,0,0,0,5.343-2.043,7.753,7.753,0,0,0,1.938-5.562,7.033,7.033,0,0,0-1.922-5.23,7.326,7.326,0,0,0-5.392-1.905Z" transform="translate(72.259 500.741)" fill="#fff"/>
  </g>
</svg>
