<svg xmlns="http://www.w3.org/2000/svg" width="607.724" height="791.455" viewBox="0 0 607.724 791.455">
  <g id="Group_157" data-name="Group 157" transform="translate(-6.5)">
    <path id="Path_190" data-name="Path 190" d="M437.348,0H27.177C15.757,0,6.5,9.257,6.5,27.22v750.1c0,4.876,9.257,14.133,20.677,14.133H593.547c11.42,0,20.677-9.257,20.677-14.133V183.42c0-9.837-1.314-13-3.632-15.334L446.139,3.632A12.494,12.494,0,0,0,437.348,0Z" fill="#e9e9e0"/>
    <path id="Path_191" data-name="Path 191" d="M37.5.151V167.614H204.963Z" transform="translate(407.127 1.983)" fill="#d9d7ca"/>
    <path id="Path_192" data-name="Path 192" d="M190.428,380.248a22.69,22.69,0,0,1-13.667-4.607C162.049,364.6,160.07,352.321,161,343.955c2.572-23.009,31.022-47.092,84.587-71.627,21.256-46.583,41.481-103.977,53.536-151.931-14.1-30.7-27.814-70.524-17.822-93.886,3.505-8.183,7.872-14.458,16.027-17.172a69.4,69.4,0,0,1,14.359-2.431c7.123,0,13.384,9.172,17.822,14.826,4.169,5.314,13.624,16.578-5.272,96.133,19.051,39.347,46.046,79.428,71.909,106.875,18.529-3.35,34.471-5.06,47.459-5.06,22.132,0,35.545,5.159,41.014,15.787,4.523,8.791,2.671,19.066-5.512,30.528-7.872,11.01-18.726,16.833-31.376,16.833-17.186,0-37.2-10.854-59.515-32.294a677.193,677.193,0,0,0-124.767,39.884c-11.815,25.072-23.136,45.268-33.679,60.08-14.486,20.281-26.98,29.75-39.347,29.75ZM228.051,307.8c-30.2,16.974-42.512,30.923-43.4,38.781-.141,1.3-.523,4.72,6.091,9.78,2.106-.664,14.4-6.275,37.311-48.561Zm192.733-62.779c11.518,8.861,14.331,13.342,21.864,13.342,3.307,0,12.734-.141,17.1-6.233A22.376,22.376,0,0,0,463,246.266c-1.738-.919-4.042-2.784-16.606-2.784a206.643,206.643,0,0,0-25.609,1.541ZM315.21,152a1007.6,1007.6,0,0,1-37.792,106.9,706.187,706.187,0,0,1,91.809-28.549c-19.08-22.161-38.145-49.833-54.017-78.354ZM306.631,32.4c-1.385.466-18.8,24.832,1.357,45.452C321.4,47.965,307.239,32.206,306.631,32.4ZM593.547,700.731H27.177A20.677,20.677,0,0,1,6.5,680.054V460.468H614.224V680.054A20.677,20.677,0,0,1,593.547,700.731Z" transform="translate(0 90.724)" fill="#cc4b4c"/>
    <path id="Path_193" data-name="Path 193" d="M38.936,185.329H15.744V42.924H56.7a57.485,57.485,0,0,1,17.963,2.9,48.851,48.851,0,0,1,15.942,8.692,45.388,45.388,0,0,1,11.405,14.006,38.806,38.806,0,0,1,4.353,18.458,50.489,50.489,0,0,1-3.675,19.617,40.986,40.986,0,0,1-10.247,14.783A46.169,46.169,0,0,1,76.6,130.648a60.968,60.968,0,0,1-20.479,3.279h-17.2v51.4Zm0-124.824v56.419H60.193a25.255,25.255,0,0,0,8.409-1.456,21.183,21.183,0,0,0,7.632-4.735,23.144,23.144,0,0,0,5.6-9.172,43.451,43.451,0,0,0,2.12-14.585,39.456,39.456,0,0,0-.961-8.014,23.135,23.135,0,0,0-3.957-8.692,23.418,23.418,0,0,0-8.409-6.954q-5.406-2.8-14.3-2.8H38.936Zm209.651,49.664q0,17.574-3.774,30.047a74.7,74.7,0,0,1-9.568,20.875A49.149,49.149,0,0,1,222.2,174.334a65.429,65.429,0,0,1-14.006,7.25,57.857,57.857,0,0,1-12.366,3.1,82.355,82.355,0,0,1-8.31.65h-53.9V42.924h42.894q17.977,0,31.588,5.7a65.584,65.584,0,0,1,22.613,15.165,62.248,62.248,0,0,1,13.426,21.539,71.328,71.328,0,0,1,4.452,24.846ZM179.8,168.327q23.574,0,34-15.066t10.43-43.671a73.967,73.967,0,0,0-2.12-17.582A37.614,37.614,0,0,0,213.9,76.264a43.339,43.339,0,0,0-16.522-11.405q-10.43-4.346-27.051-4.353H156.807V168.327H179.8ZM305.784,60.506v44.83H365.3v15.843H305.784v64.15H282.21V42.924h89.067V60.506H305.784Z" transform="translate(121.403 563.726)" fill="#fff"/>
  </g>
</svg>
